<svg id="Capa_1" enable-background="new 0 0 512 512" height="512" viewBox="0 0 512 512" width="512" xmlns="http://www.w3.org/2000/svg" xmlns:xlink="http://www.w3.org/1999/xlink"><linearGradient id="SVGID_1_" gradientUnits="userSpaceOnUse" x1="256" x2="256" y1="512" y2="0"><stop offset="0" stop-color="#a93aff"/><stop offset="1" stop-color="#ff81ff"/></linearGradient><linearGradient id="SVGID_2_" gradientUnits="userSpaceOnUse" x1="226" x2="226" y1="391" y2="91.018"><stop offset="0" stop-color="#ffbef9"/><stop offset="1" stop-color="#fff1ff"/></linearGradient><g id="Music_4_"><g><g><circle cx="256" cy="256" fill="url(#SVGID_1_)" r="256"/></g></g><g><g><path d="m343.056 91.293-150 30c-7.002 1.406-12.056 7.559-12.056 14.707v171.068c-8.811-3.765-18.937-6.068-30-6.068-33.647 0-60 19.761-60 45s26.353 45 60 45 60-19.761 60-45v-137.704l120-24v92.772c-8.811-3.765-18.937-6.068-30-6.068-33.647 0-60 19.761-60 45s26.353 45 60 45 60-19.761 60-45v-210c0-9.13-8.212-16.52-17.944-14.707zm-12.056 62.411-120 24v-29.414l120-23.994z" fill="url(#SVGID_2_)"/></g></g></g></svg>